<svg xmlns="http://www.w3.org/2000/svg" xmlns:xlink="http://www.w3.org/1999/xlink" fill="#000" version="1.1" x="0px" y="0px" viewBox="0 0 100 125" style="enable-background:new 0 0 100 100;" xml:space="preserve"><path d="M82.576,73.15c-2.148-2.229-4.582-4.756-4.582-11.367V44.239c0-11.936-9.475-22.619-21.489-25.539  c0.557-1.037,0.874-2.221,0.874-3.478c0-4.069-3.31-7.379-7.379-7.379s-7.379,3.31-7.379,7.379c0,1.257,0.318,2.441,0.874,3.477  c-12.014,2.92-21.49,13.603-21.49,25.539v17.543c0,6.611-2.434,9.138-4.582,11.367c-1.572,1.632-3.199,3.32-3.199,6.058  c0,2.292,1.864,4.156,4.156,4.156h20.734c1.081,5.018,5.548,8.793,10.885,8.793c5.337,0,9.805-3.774,10.885-8.793h20.733  c2.292,0,4.157-1.864,4.157-4.156C85.775,76.47,84.148,74.782,82.576,73.15z M50,12.536c1.482,0,2.687,1.205,2.687,2.687  S51.482,17.91,50,17.91s-2.687-1.205-2.687-2.687S48.518,12.536,50,12.536z M50,87.464c-2.726,0-5.057-1.704-5.998-4.1h11.996  C55.057,85.76,52.726,87.464,50,87.464z M19.009,78.672c0.202-0.572,0.75-1.183,1.794-2.267c2.347-2.436,5.895-6.118,5.895-14.622  V44.239c0-11.527,10.889-21.637,23.302-21.637s23.302,10.111,23.302,21.637v17.543c0,8.504,3.548,12.186,5.896,14.622  c1.044,1.083,1.592,1.695,1.794,2.267H19.009z"/></svg>